<?xml version="1.0" encoding="utf-8"?>
<!-- Generator: Adobe Illustrator 24.2.0, SVG Export Plug-In . SVG Version: 6.00 Build 0)  -->
<svg version="1.1" id="Capa_1" xmlns="http://www.w3.org/2000/svg" xmlns:xlink="http://www.w3.org/1999/xlink" x="0px" y="0px"
	 viewBox="0 0 347 158" style="enable-background:new 0 0 347 158;" xml:space="preserve">
<style type="text/css">
	.st0{fill:none;}
	.st1{fill:#39A488;}
</style>
<g>
	<rect x="149.9" y="46.8" class="st0" width="320" height="155.4"/>
	<path class="st1" d="M188.2,127.2c1.9-4.1,2.8-7.2,2.8-9.4c0-2.2-0.2-4-0.7-5.2c-0.5-1.2-0.3-2.3,0.6-3.2c0.8-0.9,2-1.2,3.3-1
		c2.1,0.6,3.1,3.1,3.1,7.6c0,4.4-2.5,10.3-7.2,17.6c0.1,3,1.6,4.4,4.3,4.4c2.8,0,7-3.2,12.7-9.7c2.7-3.3,4.3-5.6,5.1-6.6
		c0.6-1,1.2-1.3,1.8-1.1c0.5,0.3,0.8,0.6,0.8,0.8c0,1.1-1.9,4-5.6,8.7c-5.9,7.8-11.2,11.7-15.6,11.7c-3,0-5.2-1.4-6.4-4.2
		c-2.1,2.3-4.1,4.4-6,6.4c-4,3.7-8.6,5.6-13.5,5.6c-2.8,0-5.2-0.8-7-2.2c-3.6-2.3-5.5-6.4-5.5-12.6c0-6.6,2.1-13.2,6.2-20
		c2.4-4,5.2-7.6,8.4-10.6c5.1-4.8,9.8-7.2,14.5-7.2c1.1,0,2.2,0.2,3.2,0.6c3.1,1.1,4.7,3.2,4.7,6.3c0,2.6-0.6,3.9-1.9,3.9
		c-0.5-0.2-0.8-1-0.8-2.6c0-2-1-3-3.1-3c-3.6,0-8.3,3.6-14,10.7c-5.7,7.1-9.1,14.3-10.2,21.6c-0.2,1.2-0.3,2.6-0.3,4.1
		s0.5,3.2,1.4,5.2c0.9,1.9,2.7,2.9,5.2,2.9s5.3-1.2,8.3-3.7c3-2.4,5.7-5.6,8.1-9.3l-0.5-1c-0.4-1.8-0.2-3.2,0.6-4.3
		C185.8,127.1,186.8,126.7,188.2,127.2z"/>
	<path class="st1" d="M235.3,98.8c8-0.8,12.8-1.1,14.5-1.1c1.8,0,2.6,0.3,2.6,0.9c0,0.7-1.2,1.3-3.6,2.1c-2.5,0.8-8.4,1.7-17.8,2.8
		c-0.5,1-1.1,2.2-1.9,3.6c-1.6,2.7-2.4,4.3-2.5,4.8c-5.9,12.7-9,20.8-9.3,24.2c-0.1,1-0.1,2.3-0.1,3.9c0,1.6,0.4,2.8,1.2,3.9
		c1.4,1.8,3.5,1.9,6.2,0.3s6.4-4.7,11.3-9.3c4.9-4.7,8.7-9.2,11.7-13.7c0.4-0.6,0.9-0.7,1.6-0.3c1.6,0.8-1.1,5.1-8.1,13.1
		c-6.6,7.7-12.2,12.3-16.5,14.2c-2.6,1-4.8,1.6-6.5,1.6c-4.1,0-6.9-2.1-8.3-6.3c-0.2-0.8-0.3-1.7-0.3-2.8c0-3.9,1.7-9.8,5-17.7
		c-0.5,1.2-2.6,4-6.1,8.3c-0.9,1.1-1.7,1.1-2.2,0c-0.1-0.2-0.2-0.6-0.2-0.9s0.2-0.9,0.6-1.4c5.1-6.8,9-12.6,11.9-17.2
		c0-0.1,1.1-2.4,3.4-7c-1,0.2-2.1,0.3-3.2,0.3c-1,0-1.9-0.3-2.4-1.1c-0.5-0.7-0.6-1.6-0.2-2.6c0.7-1.8,3.4-2.8,8.3-3
		c0.1-0.2,0.3-0.3,0.6-0.3l7.8-15.6c0.4-0.9,0.8-1.8,1.4-2.8c0.5-0.9,0.9-1.7,1.1-2.1c0.2-0.6,0.5-1,0.8-1.6s0.5-0.9,0.8-1.1
		c0.2-0.2,0.4-0.4,0.6-0.7c0.4-0.7,1.7-1,3.6-1c2.1,0,3.4,0.7,4.1,1.8c0.3,0.4,0.5,1.2,0.5,2.2c0,1.1-0.4,2.2-1.1,3.6
		c-0.7,1.3-1.6,2.2-2.4,2.8s-1.3,1.2-1.7,1.9l-7.4,14L235.3,98.8z"/>
	<path class="st1" d="M281.4,97c5.6,0,8.4,2.9,8.4,8.7c0,3-0.8,5.4-2.4,7.3c-2.6,4.1-6.8,7.7-12.5,10.8c-5.8,3.1-10.8,4.8-14.8,5.1
		c-1.4,0.1-2.3-0.3-2.4-1.3c-0.1-0.4,0-0.7,0.4-0.9c0.3-0.1,0.6-0.1,0.8-0.1c2.4-0.2,5.5-1.4,9.2-3.7c6.9-4,12-8.1,15.2-12.3
		c1.3-2,2-3.9,2-5.8c0-1.9-0.8-2.8-2.5-2.8c-1.3,0-3.2,0.7-5.5,1.9c-4.9,2.4-10,6.7-15.4,12.8s-8.9,12-10.5,17.8
		c-0.5,1.8-0.8,3.6-0.8,5.2c0,1.8,0.6,3.3,2,4.9c1.3,1.6,3.4,2.3,6.2,2.3c3.1,0,6.7-0.9,10.8-2.7c11.7-5.1,20.7-12.8,27-23.1
		c0.6-0.9,1.1-1,1.8-0.6c0.4,0.2,0.6,0.6,0.6,0.9s-0.1,0.8-0.5,1.1c-3.1,5.6-7,10.6-11.8,14.9c-9.2,8.4-18.1,12.7-26.9,12.7
		c-7.4,0-12.7-2.4-15.7-7.2c-1.1-1.9-1.7-4.2-1.7-6.8c0-2.7,0.6-5.9,2.1-9.4c2.6-6.3,8.1-12.9,16.5-19.6
		C269.8,100.4,276.5,97,281.4,97z"/>
	<path class="st1" d="M296.6,147.2c-1.3,1.7-1.7,3-0.8,4c0.8,1,1.7,1.6,2.7,1.6c0.9,0,2-0.2,3-0.6c4.4-1.4,8.8-4.3,12.9-8.6
		c4.1-4.2,6.3-8.7,6.3-13.1c0-2.4-2.6-5.1-7.5-8c-2.4-1.3-3.7-2.1-4-2.3c-2.8-2-4.5-4-5.3-6c-1.4,2.7-3.8,6.4-7,11.4
		c-0.7,0.9-1.4,1.1-2.1,0.6s-0.7-1.2-0.2-2.1c4.2-6.2,7-11.4,8.4-15.7c0.7-6.1,4.9-11.6,12.4-16.6c7.5-4.9,14.4-7.3,20.6-7.3
		c3.9,0,6.7,0.8,8.3,2.2c1.6,1.6,2.4,3,2.4,4.4s-0.4,3.1-1.1,5c-0.8,1.9-2.4,3.7-4.8,5.3c-0.6,0.4-1.1,0.3-1.6-0.3
		c-0.2-0.7,0.2-1.6,1.3-2.8c1-1.1,1.8-2.8,2.1-4.8c0.3-2-0.5-3.2-2.5-3.7c-0.3,0-0.6,0-0.9,0c-4,0-9.1,1.7-15.1,4.8
		c-6,3.2-10.8,7.4-14.2,12.6c-1.3,1.9-2.1,3.8-2.1,5.8c0,2,1.2,3.7,3.7,5.2c1,0.7,2.8,1.8,5.3,3.1c2.5,1.4,4.2,2.6,5.3,3.1
		c1,0.7,2.3,1.8,3.7,3.2c1.4,1.4,2.2,2.8,2.4,4c0.5,3.3-0.9,7-4.3,11c-4.9,5.8-12.1,9.8-21.7,12.2c-2.2,0.6-4.3,0.9-6.6,0.9
		s-3.7-0.9-4.5-2.7c-0.3-0.4-0.5-1.1-0.5-2.1c0-1,0.8-2.4,2.5-4.6c1.6-1.7,4-3.2,7.4-4.8c0.3-0.1,0.5,0,0.8,0.1
		c0.2,0.2,0.2,0.6,0.2,0.9c-0.1,0.3-0.6,0.8-1.7,1.2C298.8,144.5,297.8,145.5,296.6,147.2z"/>
</g>
<g>
	<polygon class="st0" points="99,54.1 163.6,54.1 163.6,54.1 	"/>
</g>
<g>
	<rect x="87.4" y="112.9" class="st0" width="225.6" height="11.6"/>
</g>
<g>
	<rect x="10.2" y="27.1" class="st0" width="116.7" height="126.3"/>
</g>
<g>
	<rect x="32.1" y="0.6" class="st0" width="147.5" height="164.4"/>
	<path class="st1" d="M185.2,33.7c-3,0-7-2.4-12.1-7.3c0.1,2.1,0.2,4.2,0.2,6.4c0,11-2,24.6-6,40.5c-4,15.9-10.1,30.7-18.1,44
		c-8.1,13.5-16.2,20.2-24.6,20.2c-7,0-13-3-18.1-9.2c-5.1-6.2-8.9-14.1-11.5-23.9c-4.7-18.7-7.1-38.9-7.1-60.5
		C79.2,69,70.9,89.7,63.1,105.8c-13.3,26-26,41.1-38.2,45.3c-3.1,1.2-6,1.6-8.5,1.6s-4.7-0.2-6.6-0.8c-5.1-2-8.3-5.8-9.5-11.6
		c-0.1-0.7-0.2-1.3-0.2-1.9c0-0.6,0.1-1.3,0.2-2.1c0.1-0.8,0.5-1,1.2-0.7c0.6,0.3,1.3,1.6,1.9,3.8c0.8,3.7,3,6.2,6.6,7.1
		c2.1,0.7,4.2,1,6.2,1s4-0.3,5.8-1c12.1-4.2,23.9-18.1,35.6-41.8c8.2-17.3,16.3-41.7,24.7-73.2c-6.9,7-15,10.7-24.4,11.4
		c-1.3,0.1-1.9-0.3-2-1.5c-0.1-1.2,0.6-1.7,2.2-2.1c5.3-0.6,10.9-3.7,16.7-9.4s10.1-12.2,13-19.5c0.5-1.7,2.7-2.7,6.6-2.6
		c3.9,0.1,5.8,0.9,5.7,2.6c-0.5,1.5-1,5.2-1.7,11c-0.6,5.8-0.9,11.6-0.9,17.3c0,24.4,3.5,47.4,10.3,68.8
		c4.9,15.1,11.1,22.7,18.5,22.7c7.5,0,14.5-7.3,21-21.8c6.5-14.5,11-28.9,13.4-43.2c2.4-14.3,3.7-24.3,3.7-30.1s-0.2-10.1-0.7-12.9
		c-0.5-2.8-2.2-8.9-5-18.2c-0.1-0.5,0.3-1.2,1.4-2.2s1.8-1.6,2.2-1.7c2.4,0,4.6,1.6,6.7,4.8s4.2,7,6.3,11.3
		c3.7,7.8,7,11.6,10.2,11.6l2.2-0.6c1.2,0,1.8,0.7,2.1,2.1c0,1.2-0.4,2.1-1.4,2.8C187,33.1,186.1,33.6,185.2,33.7z"/>
</g>
</svg>
