<svg fill="none" height="74" viewBox="0 0 74 74" width="74" xmlns="http://www.w3.org/2000/svg"><g fill="#fff"><path d="m41.0285 71c.3892 0 .7103-.1273.9633-.3819.2529-.2349.4184-.558.4962-.9693.4086-3.2114.8659-5.9235 1.3719-8.1363.5254-2.2128 1.2065-4.0339 2.0432-5.4634.8562-1.4295 1.9849-2.5652 3.386-3.4073 1.4011-.8616 3.1816-1.5372 5.3416-2.0267 2.16-.4896 4.8259-.9106 7.9978-1.2631.4087-.0391.7395-.1958.9925-.4699.2529-.2742.3794-.6071.3794-.9987 0-.3721-.1265-.6952-.3794-.9693-.253-.2742-.5838-.4308-.9925-.47-3.1719-.3525-5.8378-.7735-7.9978-1.263-2.16-.4896-3.9405-1.1652-5.3416-2.0268s-2.5298-2.0071-3.386-3.4366c-.8367-1.4295-1.5178-3.2409-2.0432-5.4341-.506-2.2127-.9633-4.9346-1.3719-8.1657-.0778-.3916-.2433-.7049-.4962-.9399-.253-.2546-.5741-.3819-.9633-.3819-.3697 0-.6908.1273-.9632.3819-.253.235-.4087.5483-.467.9399-.4087 3.2311-.8757 5.953-1.4011 8.1657-.506 2.1932-1.187 4.0046-2.0433 5.4341-.8562 1.4295-1.9848 2.575-3.3859 3.4366s-3.1816 1.5372-5.3416 2.0268c-2.16.4895-4.8162.9105-7.9687 1.263-.4281.0392-.7686.1958-1.0216.47-.253.2741-.3795.5972-.3795.9693 0 .3916.1265.7245.3795.9987.253.2741.5935.4308 1.0216.4699 3.1525.4113 5.7989.8812 7.9395 1.4099 2.16.5092 3.9308 1.1848 5.3124 2.0268 1.4011.842 2.5297 1.968 3.386 3.3779.8562 1.4099 1.5373 3.2017 2.0432 5.3753.5254 2.1932 1.0119 4.8955 1.4595 8.1069.0583.4113.214.7344.467.9693.2724.2546.5935.3819.9632.3819z"/><path d="m21.2378 38.5134c.2725 0 .4963-.0881.6714-.2644.1751-.1762.2822-.3916.3211-.6462.2529-1.9582.5156-3.4856.7881-4.5822.2724-1.0966.6908-1.919 1.2551-2.4673.5838-.5679 1.44-.9987 2.5687-1.2925 1.1481-.3133 2.734-.6657 4.7578-1.0574.5838-.1175.8757-.4504.8757-.9987 0-.2741-.0876-.4993-.2627-.6755-.1557-.1763-.36-.2742-.613-.2938-2.0238-.2937-3.6097-.5776-4.7578-.8518-1.1481-.2741-2.0141-.6952-2.5979-1.263-.5643-.5875-.9827-1.4491-1.2551-2.5849-.253-1.1357-.506-2.6925-.7589-4.6703-.0779-.6266-.4087-.9399-.9925-.9399-.5837 0-.9146.3231-.9924.9693-.2335 1.9582-.4865 3.4856-.7589 4.5822-.2724 1.077-.7006 1.8897-1.2843 2.4379-.5838.5483-1.4498.9792-2.5979 1.2925-1.1481.2937-2.7243.6364-4.7286 1.028-.5838.0979-.8757.421-.8757.9693 0 .5679.3308.9008.9924.9987 1.9849.3329 3.5417.6462 4.6703.94 1.1481.2937 2.0043.7245 2.5687 1.2924.5837.5483 1.0021 1.3805 1.2551 2.4967.2724 1.1162.5254 2.6534.7589 4.6116.0778.6462.4087.9693.9924.9693zm14.1276-20.2087c.3503 0 .5643-.1958.6422-.5875.214-1.1945.4086-2.1344.5838-2.8198.1751-.6854.4281-1.2043.7589-1.5568.3502-.372.8756-.6658 1.5762-.8812.7005-.2154 1.6832-.4308 2.9481-.6462.3892-.0783.5838-.3035.5838-.6755 0-.3525-.1946-.5679-.5838-.6462-1.2649-.235-2.2476-.4504-2.9481-.64626-.7006-.2154-1.226-.49934-1.5762-.85182-.3308-.37206-.5838-.90077-.7589-1.58614-.1752-.68537-.3698-1.62531-.5838-2.81982-.0779-.39164-.2919-.58746-.6422-.58746-.3697 0-.5838.19582-.6422.58746-.2335 1.19451-.4378 2.13445-.6129 2.81982-.1557.68537-.4087 1.21408-.7589 1.58614-.3309.35248-.8465.63642-1.5471.85182-.7005.19586-1.6832.41126-2.9481.64626-.3892.0783-.5838.2937-.5838.6462 0 .372.1946.5972.5838.6755 1.2649.2154 2.2476.4308 2.9481.6462.7006.2154 1.2162.5092 1.5471.8812.3502.3525.6032.8714.7589 1.5568.1751.6854.3794 1.6253.6129 2.8198.0584.3917.2725.5875.6422.5875z" opacity=".6"/></g></svg>