<svg id="Layer" enable-background="new 0 0 64 64" height="512" viewBox="0 0 64 64" width="512" xmlns="http://www.w3.org/2000/svg"><path d="m54 16v32c0 1.1-.9 2-2 2h-6v-1-20l-11.84 7.36c-1.31.85-3.01.85-4.32 0l-11.84-7.36v21h-6c-1.1 0-2-.9-2-2v-32c0-.62.28-1.17.73-1.54l19.12 11.93c1.31.83 2.99.83 4.3 0l19.12-11.93c.45.37.73.92.73 1.54z" fill="#ff7043"/><path d="m53.27 14.46-19.12 11.93c-1.31.83-2.99.83-4.3 0l-19.12-11.93c.35-.29.79-.46 1.27-.46h40c.48 0 .92.17 1.27.46z" fill="#4dd0e1"/><path d="m46 49v1h-28v-21l11.84 7.36c1.31.85 3.01.85 4.32 0l11.84-7.36z" fill="#4dd0e1"/><path d="m54.617 12.992c-.026-.022-.044-.051-.071-.072-.021-.017-.046-.029-.067-.046-.044-.034-.09-.065-.137-.095-.681-.496-1.499-.779-2.342-.779h-40c-.847 0-1.668.284-2.352.785-.041.026-.081.053-.12.083-.023.018-.049.031-.071.049-.027.023-.047.053-.074.076-.058.053-.114.109-.166.17-.766.75-1.217 1.756-1.217 2.837v32c0 2.206 1.794 4 4 4h40c2.206 0 4-1.794 4-4v-32c0-1.084-.453-2.092-1.218-2.838-.052-.061-.108-.116-.165-.17zm-7.594 3.008-13.943 8.7c-.656.417-1.502.417-2.171-.008l-13.932-8.692zm-3.023 32h-24v-15.401l8.751 5.439c1.973 1.279 4.522 1.279 6.465.021l8.784-5.46zm4 0v-19c0-.727-.394-1.396-1.028-1.748-.634-.353-1.411-.335-2.028.05l-11.872 7.381c-.651.422-1.492.422-2.176-.021l-11.84-7.36c-.617-.385-1.393-.402-2.028-.05s-1.028 1.021-1.028 1.748v19h-4l-.005-30.393 16.785 10.472c.979.621 2.103.931 3.224.931 1.118 0 2.234-.309 3.205-.923l16.791-10.477v30.39z" fill="#012e52"/></svg>