<svg id="Layer" enable-background="new 0 0 64 64" height="512" viewBox="0 0 64 64" width="512" xmlns="http://www.w3.org/2000/svg"><path d="m54 22v20c0 6.63-5.37 12-12 12h-20c-6.63 0-12-5.37-12-12v-20c0-6.63 5.37-12 12-12h20c6.63 0 12 5.37 12 12zm-29-1c0-.55-.45-1-1-1s-1 .45-1 1 .45 1 1 1 1-.45 1-1z" fill="#4dd0e1"/><g fill="#012e52"><path d="m42 8h-20c-7.72 0-14 6.28-14 14v20c0 7.72 6.28 14 14 14h20c7.72 0 14-6.28 14-14v-20c0-7.72-6.28-14-14-14zm10 34c0 5.514-4.486 10-10 10h-20c-5.514 0-10-4.486-10-10v-20c0-5.514 4.486-10 10-10h20c5.514 0 10 4.486 10 10z"/><path d="m24 27c-1.104 0-2 .896-2 2v15c0 1.104.896 2 2 2s2-.896 2-2v-15c0-1.104-.896-2-2-2z"/><path d="m38 29h-2c-.702 0-1.373.128-2 .35v-.35c0-1.104-.896-2-2-2s-2 .896-2 2v6 9c0 1.104.896 2 2 2s2-.896 2-2v-9c0-1.103.897-2 2-2h2c1.103 0 2 .897 2 2v9c0 1.104.896 2 2 2s2-.896 2-2v-9c0-3.309-2.691-6-6-6z"/><path d="m24 18c-1.654 0-3 1.346-3 3s1.346 3 3 3 3-1.346 3-3-1.346-3-3-3z"/></g></svg>