<svg width="512" height="512" viewBox="0 0 512 512" fill="none" xmlns="http://www.w3.org/2000/svg">
<g clip-path="url(#clip0_202_2)">
<path d="M511.215 256.06C511.215 289.577 504.613 322.765 491.787 353.731C478.961 384.696 460.161 412.832 436.461 436.532C412.761 460.232 384.625 479.032 353.66 491.858C322.695 504.684 289.506 511.286 255.989 511.286C222.473 511.286 189.284 504.684 158.319 491.858C127.353 479.032 99.2174 460.232 75.5175 436.532C51.8176 412.832 33.0179 384.696 20.1916 353.731C7.36528 322.765 0.763672 289.577 0.763672 256.06C0.763672 188.37 27.6534 123.452 75.5175 75.5883C123.382 27.7242 188.299 0.834469 255.989 0.834469C323.679 0.834469 388.597 27.7242 436.461 75.5883C484.325 123.452 511.215 188.37 511.215 256.06ZM90.7632 194.85C96.9181 198.697 103.557 199.581 110.681 197.502C139.665 189.051 169.77 185.041 199.889 183.903C239.257 182.418 278.98 185.533 317.518 193.796C344.465 199.574 370.931 208.265 395.488 220.729C398.953 222.487 402.691 224.665 406.28 226.655C408.689 227.992 410.651 228.89 412.167 229.35C418.991 231.411 426.261 230.372 432.233 226.5C445.171 218.113 446.6 199.556 435.437 189.093C434.246 187.976 432.501 186.746 430.2 185.402C399.523 167.493 365.306 155.481 330.639 147.826C284.008 137.529 235.41 134.018 188.178 136.684C166.531 137.905 145.092 140.695 123.863 145.054C113.241 147.234 104.12 149.52 96.4985 151.91C77.2737 157.942 73.4302 184.016 90.7632 194.85ZM97.0076 255.498C95.9009 267.633 106.035 277.894 118.227 277.035C119.535 276.941 121.311 276.57 123.555 275.921C175.19 260.979 230.792 260.148 283.318 270.653C315.778 277.145 347.043 288.357 375.376 305.04C378.002 306.586 379.943 307.568 381.199 307.985C391.132 311.288 401.786 306.001 405.735 296.504C408.804 289.121 406.906 280.232 401.057 274.663C399.89 273.552 397.964 272.203 395.279 270.614C376.129 259.282 355.888 250.09 334.557 243.037C290.196 228.37 243.341 222.101 196.752 224.049C168.571 225.227 140.482 229.562 113.4 237.482C110.501 238.331 108.337 239.168 106.908 239.993C101.23 243.267 97.6052 248.956 97.0076 255.498ZM107.534 333.489C107.074 343.061 115.582 350.964 125.097 349.914C128.113 349.581 133.894 348.11 138.162 347.223C183.517 337.81 230.906 335.307 276.505 344.854C302.461 350.287 326.757 359.714 349.394 373.134C351.848 374.589 353.662 375.501 354.836 375.871C361.886 378.084 369.824 374.771 373.325 368.417C377.066 361.635 375.535 353.718 369.771 348.56C368.682 347.587 367.261 346.777 365.963 345.996C332.418 325.901 294.973 313.731 256.177 309.219C211.599 304.039 166.559 308.19 122.894 317.924C119.738 318.627 117.494 319.315 116.162 319.989C110.999 322.595 107.813 327.722 107.534 333.489Z" fill="#EDE7DE"/>
</g>
<defs>
<clipPath id="clip0_202_2">
<rect width="512" height="512" fill="white"/>
</clipPath>
</defs>
</svg>
